<?xml version="1.0" encoding="iso-8859-1"?>
<!-- Uploaded to: SVG Repo, www.svgrepo.com, Generator: SVG Repo Mixer Tools -->
<svg fill="#000000" height="800px" width="800px" version="1.1" id="Layer_1" xmlns="http://www.w3.org/2000/svg" xmlns:xlink="http://www.w3.org/1999/xlink" 
	 viewBox="0 0 512 512" xml:space="preserve">
<g>
	<g>
		<polygon points="333.707,49.222 49.23,333.696 70.736,355.202 156.788,441.254 178.294,462.76 462.768,178.282 		"/>
	</g>
</g>
<g>
	<g>
		<path d="M63.907,391.384l-52.164,52.167c-0.001,0.001-0.001,0.001-0.001,0.001C4.17,451.125,0,461.192,0,471.9
			c0.001,10.708,4.172,20.776,11.741,28.344c7.569,7.574,17.636,11.745,28.345,11.747c10.709,0.001,20.775-4.168,28.349-11.741
			l52.171-52.166L63.907,391.384z"/>
	</g>
</g>
<g>
	<g>
		<path d="M500.255,11.731c-15.634-15.629-41.064-15.629-56.691-0.003c-0.001,0.001-0.002,0.002-0.003,0.003l-52.166,52.164
			l56.697,56.697l52.169-52.169c7.571-7.572,11.741-17.639,11.74-28.347S507.828,19.301,500.255,11.731z"/>
	</g>
</g>
</svg>